:SAMPLES-PER-SECOND 30
:FULLY-SPECIFIED
:DEGREES
78
root  -20.4566 39.5739 -1.40544 -4.13486 -76.1852 1.51553
RightUpLeg  -18.9215 -23.819 -1.39475
RightLeg  21.3182 -10.362 -0.0705021
RightFoot  0.981963 0.751986 -6.89124
RightToes  0.000482159 0.542163 -0.142577
Spine  24.0686 1.27752 18.1209
Spine1  9.1896 8.76855 -14.3173
HEad  -27.1247 -26.0345 2.16972
LeftShoulder1  6.875 -12.531 -36.7693
LeftArm  -9.1043 13.5549 -30.9435
LeftForeArm  42.0407 -31.1276 -4.48147
LeftHand  -0.25398 0.0180481 5.50724
RightShoulder  2.14823 6.51232 14.6379
RightArm  -35.3846 38.6231 15.1846
RightForeArm  1.20386 63.5397 23.838
RightHand  -3.03198 7.77262 -26.6892
LeftUpLeg  -30.4043 7.20288 2.1122
LeftLeg  52.9504 -0.953264 -0.862682
LeftFoot  3.01028 0.959692 -7.765
LeftToes  1.06244e-005 4.65856e-005 -8.18505e-006
79
root  -21.4417 39.8502 -1.20707 -3.05804 -77.2037 0.614609
RightUpLeg  -15.8454 -20.136 -2.96664
RightLeg  19.2775 -13.8055 1.46193
RightFoot  0.306143 0.681445 -6.64639
RightToes  0.000482159 0.542163 -0.142577
Spine  23.4885 1.62138 16.7328
Spine1  8.32111 8.30944 -13.4664
HEad  -26.4469 -24.3838 0.769803
LeftShoulder1  6.81366 -12.3134 -36.9652
LeftArm  -8.69345 17.2036 -29.9953
LeftForeArm  39.1993 -25.8315 -3.47985
LeftHand  -0.25398 0.0180481 5.50724
RightShoulder  1.89371 5.1152 15.1834
RightArm  -41 33.0464 10.9591
RightForeArm  24.7657 75.1006 48.2741
RightHand  -3.0412 7.37112 -27.5571
LeftUpLeg  -28.5052 8.60018 2.79314
LeftLeg  42.201 -1.97228 -1.52363
LeftFoot  2.28965 0.998317 -8.45653
LeftToes  1.06244e-005 4.65856e-005 -8.18505e-006
80
root  -22.3744 40.0607 -0.960321 -1.01479 -78.7384 -1.32791
RightUpLeg  -13.543 -17.2732 -3.43813
RightLeg  17.6567 -15.6298 2.33215
RightFoot  -0.382437 0.591121 -6.17827
RightToes  0.000482159 0.542163 -0.142577
Spine  22.9533 1.55412 15.2777
Spine1  7.61426 7.61874 -13.0528
HEad  -26.3616 -21.6494 -0.30194
LeftShoulder1  6.65694 -11.9524 -36.9559
LeftArm  -9.84083 21.8929 -29.1995
LeftForeArm  36.7814 -22.1463 -3.02807
LeftHand  -0.25398 0.0180481 5.50724
RightShoulder  1.42491 3.22866 14.2741
RightArm  -47.3361 28.252 7.22384
RightForeArm  77.6271 78.5925 102.267
RightHand  -3.01193 7.0781 -27.9154
LeftUpLeg  -25.4894 8.99639 4.08074
LeftLeg  30.2102 -3.02918 -1.57729
LeftFoot  2.46172 1.03032 -8.64039
LeftToes  1.06244e-005 4.65856e-005 -8.18505e-006
81
root  -23.2486 40.2359 -0.683095 2.5641 -80.7181 -5.1329
RightUpLeg  -11.3594 -15.2356 -3.20082
RightLeg  16.216 -15.886 2.69895
RightFoot  -0.802157 0.502076 -5.49561
RightToes  0.000482159 0.542163 -0.142577
Spine  22.7281 1.23714 13.7489
Spine1  7.01391 6.89518 -13.0352
HEad  -26.5738 -18.4476 -0.883831
LeftShoulder1  6.31522 -11.3407 -36.4409
LeftArm  -12.4704 26.7449 -29.2046
LeftForeArm  34.8505 -19.0847 -3.06707
LeftHand  -0.25398 0.0180481 5.50724
RightShoulder  0.924767 1.21145 12.5735
RightArm  -53.9887 23.7264 4.06258
RightForeArm  111.778 73.5813 137.825
RightHand  -2.61022 5.62782 -27.3587
LeftUpLeg  -21.6071 8.05 6.00492
LeftLeg  18.2303 -3.58416 -1.05394
LeftFoot  5.16214 1.12637 -7.97453
LeftToes  1.06244e-005 4.65856e-005 -8.18505e-006
82
root  -24.1009 40.3377 -0.373135 10.8914 -82.7312 -13.8979
RightUpLeg  -9.25118 -13.2895 -2.51196
RightLeg  15.1588 -15.8796 2.74229
RightFoot  -1.29115 0.40373 -4.68149
RightToes  0.000482159 0.542163 -0.142577
Spine  22.5616 0.923985 12.2309
Spine1  6.40214 6.09984 -12.5855
HEad  -26.7096 -14.9116 -1.34679
LeftShoulder1  5.84771 -10.5008 -35.6726
LeftArm  -15.1832 31.11 -30.0881
LeftForeArm  32.653 -16.0368 -2.96004
LeftHand  -0.25398 0.0180481 5.50724
RightShoulder  0.503155 -0.764118 11.2315
RightArm  -60.3864 19.7518 1.53062
RightForeArm  122.467 68.4396 149.633
RightHand  -2.07287 3.83325 -26.0042
LeftUpLeg  -17.6188 6.99178 8.44399
LeftLeg  8.17159 -4.16274 -1.01784
LeftFoot  10.0141 1.54572 -8.46649
LeftToes  1.06244e-005 4.65856e-005 -8.18505e-006
83
root  -24.9268 40.3468 -0.0486438 27.2927 -84.1971 -30.5004
RightUpLeg  -7.82211 -12.0164 -1.41589
RightLeg  14.9069 -15.5774 2.52518
RightFoot  -2.27018 0.288032 -3.81802
RightToes  0.000482159 0.542163 -0.142577
Spine  22.3268 0.756481 10.4914
Spine1  5.55086 5.12636 -11.0857
HEad  -26.8709 -11.1408 -2.2839
LeftShoulder1  5.38971 -9.57172 -35.1441
LeftArm  -17.5284 34.836 -31.4163
LeftForeArm  30.3127 -13.4318 -2.52588
LeftHand  -0.25398 0.0180481 5.50724
RightShoulder  0.176013 -2.51875 10.6635
RightArm  -65.9944 17.1334 -0.104441
RightForeArm  126.514 65.3421 154.01
RightHand  -1.72274 2.77201 -24.4341
LeftUpLeg  -14.8898 7.38268 10.646
LeftLeg  2.40685 -4.86158 -1.75544
LeftFoot  14.4631 2.06219 -9.40999
LeftToes  1.06244e-005 4.65856e-005 -8.18505e-006
84
root  -25.6548 40.309 0.256003 49.2966 -84.8554 -52.3021
RightUpLeg  -7.31785 -12.6218 -0.226525
RightLeg  15.3955 -13.7247 2.19129
RightFoot  -3.41067 0.192301 -3.10953
RightToes  0.000482159 0.542163 -0.142577
Spine  22.4489 0.878616 7.93021
Spine1  4.2506 4.11786 -8.56926
HEad  -27.7237 -7.79575 -3.95846
LeftShoulder1  5.00793 -8.69503 -34.9716
LeftArm  -19.7546 37.8445 -32.8277
LeftForeArm  28.4009 -12.2954 -1.8672
LeftHand  -0.25398 0.0180481 5.50724
RightShoulder  -0.0710834 -3.898 10.5426
RightArm  -70.7296 16.4839 0.12037
RightForeArm  130.3 63.3116 156.463
RightHand  -1.18214 0.704852 -22.3267
LeftUpLeg  -14.3081 8.66583 11.7019
LeftLeg  2.24745 -4.79477 -2.21968
LeftFoot  15.6081 1.77032 -7.7529
LeftToes  1.06244e-005 4.65856e-005 -8.18505e-006
